# xmcd
#
# Track frame offsets: 
#        150
#        21795
#        64578
#        83116
#        102461
#        132336
#        149130
#        169363
#        195859
#        215258
#        243657
#        265225
#        291771
#
# Disc length: 4413 seconds
#
# Revision: 1
# Processed by: cddbd v1.5.2PL0 Copyright (c) Steve Scherf et al.
# Submitted via: ExactAudioCopy v0.95b4
#
DISCID=c4113b0d
DTITLE=Various Artist - 7th Annual Blues for the Cure 2006 - Volume 5
DYEAR=2006
DGENRE=Blues
TTITLE0=Lara Price Band - Faces of the Blues
TTITLE1=Lara Price Band - I'm Moving On - Little by Little
TTITLE2=Mick Martin and the Blues Rockers with Dana Moret - Candy Girl
TTITLE3=Mick Martin and the Blues Rockers with Dana Moret - The Fight So
TTITLE3=ng
TTITLE4=Daniel Castro - Jealous Man
TTITLE5=Daniel Castro - Dimples
TTITLE6=Aaron King and Friends - She Moves Me
TTITLE7=Aaron King and Friends - My Back Scratcher
TTITLE8=Aaron King and Friends with Anna M. - Fine and Mellow
TTITLE9=Pailer, Fratis and Taylor with Stacy Eakes - Angel from Montgome
TTITLE9=ry
TTITLE10=Pailer, Fratis and Taylor - Good Times
TTITLE11=Mercy Me Band - American Woman
TTITLE12=Mercy Me Band - For the Love of You
EXTD=
EXTT0=
EXTT1=
EXTT2=
EXTT3=
EXTT4=
EXTT5=
EXTT6=
EXTT7=
EXTT8=
EXTT9=
EXTT10=
EXTT11=
EXTT12=
PLAYORDER=
